<?xml version="1.0" encoding="UTF-8"?>
<svg width="195px" height="41px" viewBox="0 0 195 41" version="1.1" xmlns="http://www.w3.org/2000/svg" xmlns:xlink="http://www.w3.org/1999/xlink">
    <!-- Generator: Sketch 51.3 (57544) - http://www.bohemiancoding.com/sketch -->
    <title>bone 11</title>
    <desc>Created with Sketch.</desc>
    <defs></defs>
    <g id="Page-1" stroke="none" stroke-width="1" fill="none" fill-rule="evenodd">
        <g id="Desktop-Copy-10" transform="translate(-549.000000, -397.000000)" fill="#FFFFFF" fill-rule="nonzero" stroke="#000000">
            <path d="M736.820312,407.453125 C694.382898,390.210133 635.882657,398.913894 592.960938,409.828125 C582.147188,412.577869 557.101,420.352263 550.570312,431.804688 C549.864003,433.043295 550.536508,435.142465 551.730469,435.921875 C556.143917,438.802949 567.283039,430.956576 568.351562,430.761719 C616.785338,421.929285 685.829338,404.86887 735.59375,425.890625 C737.152145,426.548931 739.620163,427.949792 740.621094,426.585938 C742.606172,423.881097 741.990413,420.006626 742.359375,416.671875 C742.57187,414.751303 742.788173,412.759113 742.359375,410.875 C742.189696,410.129439 741.242188,409.830729 740.683594,409.308594 L736.820312,407.453125 Z" id="bone-11"></path>
        </g>
    </g>
</svg>