<?xml version="1.0" encoding="UTF-8"?>
<svg width="69px" height="72px" viewBox="0 0 69 72" version="1.1" xmlns="http://www.w3.org/2000/svg" xmlns:xlink="http://www.w3.org/1999/xlink">
    <!-- Generator: Sketch 51.3 (57544) - http://www.bohemiancoding.com/sketch -->
    <title>bone 10</title>
    <desc>Created with Sketch.</desc>
    <defs></defs>
    <g id="Page-1" stroke="none" stroke-width="1" fill="none" fill-rule="evenodd">
        <g id="Desktop-Copy-10" transform="translate(-438.000000, -534.000000)" fill="#FFFFFF" fill-rule="nonzero" stroke="#000000">
            <path d="M497.035156,540.867188 C487.730646,529.570075 465.320606,536.270138 452.839844,545.507812 C444.28175,551.842111 460.196203,558.011103 458.25,565.394531 C456.150209,573.360636 457.183615,579.988276 456.058594,580.875 C450.698994,585.099353 442.851562,583.308594 439.761719,591.195312 C437.297225,597.485848 444.181375,600.183348 447.878906,601.34375 C453.847654,603.216931 463.902518,604.591078 470.105469,605.402344 C471.656622,605.605214 500.465398,601.994561 504.957031,590.789062 C508.643311,581.592718 493.611661,585.126567 492.332031,575.65625 C490.860661,564.766893 493.729342,562.082453 498.773438,554.898437 C497.614583,545.544271 497.035156,540.867188 497.035156,540.867188 Z" id="bone-10"></path>
        </g>
    </g>
</svg>