<?xml version="1.0" encoding="UTF-8"?>
<svg width="187px" height="193px" viewBox="0 0 187 193" version="1.1" xmlns="http://www.w3.org/2000/svg" xmlns:xlink="http://www.w3.org/1999/xlink">
    <!-- Generator: Sketch 51.3 (57544) - http://www.bohemiancoding.com/sketch -->
    <title>bone 5</title>
    <desc>Created with Sketch.</desc>
    <defs></defs>
    <g id="Page-1" stroke="none" stroke-width="1" fill="none" fill-rule="evenodd">
        <g id="Desktop-Copy-8" transform="translate(-120.000000, -466.000000)" fill="#FFFFFF" fill-rule="nonzero" stroke="#000000">
            <path d="M192.993342,476.858043 C190.321366,474.180296 188.408716,470.417269 184.977414,468.824802 C166.406904,460.20623 167.153115,484.656448 162.228107,489.375356 C150.684089,500.436281 142.386841,477.625015 132.700752,484.631588 C126.808366,488.893931 115.161322,511.321584 124.503037,516.530827 C134.901516,522.329355 147.113653,524.081126 158.064325,528.753818 C161.743526,530.323747 165.73592,532.026696 168.201098,535.176949 C172.50037,540.67099 173.641937,548.149079 177.688633,553.831727 C182.913911,561.169422 190.661244,566.494286 195.780738,573.906173 C217.371688,605.165058 225.668226,634.02987 258.012386,654.584843 C262.44997,657.404963 268.220194,657.310867 273.4556,657.796408 C296.655176,659.947982 282.889821,649.941764 293.261694,637.704649 C294.757884,635.939389 308.062289,636.993107 305.77035,629.7926 C297.650675,604.283287 269.737296,617.504919 254.497843,600.100771 C243.392711,587.418206 223.76792,569.280642 214.418204,554.281865 C199.852686,530.915924 199.909684,513.228389 194.880461,487.237198 L192.993342,476.858043 Z" id="bone-5"></path>
        </g>
    </g>
</svg>