<?xml version="1.0" encoding="UTF-8"?>
<svg width="212px" height="212px" viewBox="0 0 212 212" version="1.1" xmlns="http://www.w3.org/2000/svg" xmlns:xlink="http://www.w3.org/1999/xlink">
    <!-- Generator: Sketch 51.3 (57544) - http://www.bohemiancoding.com/sketch -->
    <title>bone 4</title>
    <desc>Created with Sketch.</desc>
    <defs></defs>
    <g id="Page-1" stroke="none" stroke-width="1" fill="none" fill-rule="evenodd">
        <g id="Desktop-Copy-8" transform="translate(-634.000000, -303.000000)" fill="#FFFFFF" fill-rule="nonzero" stroke="#000000">
            <path d="M796.810317,392.588947 C751.485745,383.597491 716.540611,379.244807 697.485525,379.076135 C678.430439,378.907463 642.03943,358.734816 625.246951,375.847257 C616.625005,384.633485 633.22016,391.658857 638.00081,399.426655 C647.110214,414.227992 582.27701,427.41809 630.816234,442.560051 C649.553191,448.405103 657.572701,429.398639 670.33748,422.532596 C688.382499,412.826368 703.001114,411.275627 722.696142,411.925079 C741.387688,412.54144 775.403183,412.876685 792.633309,424.100664 C803.384149,431.103934 808.796631,444.986376 824.094701,446.099734 C830.682191,446.579156 837.487734,446.636746 843.885716,445.073572 C864.528927,440.02996 840.660841,424.141991 844.347668,415.418641 C849.610215,402.967003 861.505954,407.582903 868.794677,396.740186 C884.1545,373.890886 834.379639,382.554523 834.050622,382.573365 L796.810317,392.588947 Z" id="bone-4" transform="translate(742.166026, 407.681881) rotate(-43.000000) translate(-742.166026, -407.681881) "></path>
        </g>
    </g>
</svg>