<?xml version="1.0" encoding="UTF-8"?>
<svg width="78px" height="254px" viewBox="0 0 78 254" version="1.1" xmlns="http://www.w3.org/2000/svg" xmlns:xlink="http://www.w3.org/1999/xlink">
    <!-- Generator: Sketch 51.3 (57544) - http://www.bohemiancoding.com/sketch -->
    <title>bone 7</title>
    <desc>Created with Sketch.</desc>
    <defs></defs>
    <g id="Page-1" stroke="none" stroke-width="1" fill="none" fill-rule="evenodd">
        <g id="Desktop-Copy-10" transform="translate(-799.000000, -385.000000)" fill="#FFFFFF" fill-rule="nonzero" stroke="#000000">
            <path d="M868.138431,399.469237 C864.018184,393.147813 860.186419,390.062736 853.056275,387.380554 C833.92509,380.183878 830.234892,403.006742 831.475482,412.445211 C833.10689,424.857041 837.846026,436.736837 839.570842,449.136441 C843.559767,477.812592 838.703606,488.576939 833.888777,519.184498 C832.134651,530.335366 829.284551,549.563011 826.20221,560.431586 C820.47982,580.609177 795.72489,599.557835 800.642159,621.004635 C803.374091,632.920027 818.010921,640.262195 829.75804,636.740779 C831.587072,636.192493 832.318496,633.888635 833.168735,632.203947 C834.781626,629.008116 833.915361,623.948592 837.087405,622.218158 C853.553695,613.235363 845.934177,625.342756 853.947362,627.944719 C867.599216,632.377615 873.079958,622.039492 875.306534,609.567378 C880.741338,579.124448 857.617188,601.210937 852.074219,591.992187 C846.819193,583.252328 851.238281,574.828125 851.367188,564.046875 C851.496094,553.265625 853.391844,545.4563 855.293901,511.502014 C855.932018,500.110766 854.646908,488.649978 855.568047,477.277488 C857.732758,450.551699 874.139809,440.900096 870.871825,410.406809 L868.138431,399.469237 Z" id="bone-7"></path>
        </g>
    </g>
</svg>