<?xml version="1.0" encoding="UTF-8"?>
<svg width="279px" height="96px" viewBox="0 0 279 96" version="1.1" xmlns="http://www.w3.org/2000/svg" xmlns:xlink="http://www.w3.org/1999/xlink">
    <!-- Generator: Sketch 51.3 (57544) - http://www.bohemiancoding.com/sketch -->
    <title>bone1</title>
    <desc>Created with Sketch.</desc>
    <defs></defs>
    <g id="Page-1" stroke="none" stroke-width="1" fill="none" fill-rule="evenodd">
        <g id="Desktop-Copy-8" transform="translate(-29.000000, -88.000000)" fill="#FFFFFF" fill-rule="nonzero" stroke="#000000">
            <path d="M201.584775,9.32233254 C183.351208,2.94502037 165.728281,-14.0082661 162.699733,10.6900611 C161.348419,21.7102639 168.157473,22.1710103 169.122863,39.9663769 C169.490929,46.7510493 164.953707,53.0312676 164.448348,59.8070971 C162.844903,81.3060353 164.185784,102.947166 162.820924,124.462568 C161.886475,139.193064 160.192721,153.905974 157.557767,168.428981 C155.731554,178.494468 153.662197,188.701707 149.472586,198.034244 C145.915697,205.957367 129.715592,222.109093 129.320232,235.084105 C129.091087,242.60423 152.764834,275.382987 160.968431,276.003427 C173.178331,276.926864 180.290608,273.209538 182.37598,262.897471 C186.682785,241.600515 171.164181,227.121213 173.996478,205.790477 C176.739213,185.134256 179.603687,164.48715 183.068501,143.939715 C184.451234,135.739669 187.655608,127.867242 188.530758,119.59761 C191.65662,90.0601236 187.308798,71.1964527 196.217739,44.5110445 C198.687442,37.1134155 213.405068,22.2717351 205.731243,13.1658228 L201.584775,9.32233254 Z" id="bone1" transform="translate(168.622386, 136.919548) rotate(-86.000000) translate(-168.622386, -136.919548) "></path>
        </g>
    </g>
</svg>