<?xml version="1.0" encoding="UTF-8"?>
<svg width="62px" height="204px" viewBox="0 0 62 204" version="1.1" xmlns="http://www.w3.org/2000/svg" xmlns:xlink="http://www.w3.org/1999/xlink">
    <!-- Generator: Sketch 51.3 (57544) - http://www.bohemiancoding.com/sketch -->
    <title>bone 2</title>
    <desc>Created with Sketch.</desc>
    <defs></defs>
    <g id="Page-1" stroke="none" stroke-width="1" fill="none" fill-rule="evenodd">
        <g id="Desktop-Copy-8" transform="translate(-327.000000, -78.000000)" fill="#FFFFFF" fill-rule="nonzero" stroke="#000000">
            <path d="M341.276248,95.6391616 C326.885623,110.928224 346.690437,143.053921 346.202441,168.288382 C345.907569,183.536316 344.04267,198.545078 342.577122,213.552369 C340.833884,231.403208 325.875185,233.000549 328.256107,253.018751 C329.618391,264.472493 364.578352,286.738167 370.23771,280.086792 C372.572369,277.342895 372.572194,270.560051 372.981737,265.442191 C376.015682,227.528406 365.633575,236.9136 363.76154,224.118568 C361.62708,209.5299 361.561036,193.860021 362.359483,178.804384 C363.105943,164.72903 364.795384,150.365273 368.334918,137.882326 C370.24863,131.1332 375.137715,129.282017 377.962378,123.77733 C386.351279,107.429091 394.136671,84.6161179 382.119998,80.8188491 C368.448123,76.4985366 356.840167,80.4152542 353.291873,86.8969741 L341.276248,95.6391616 Z" id="bone-2"></path>
        </g>
    </g>
</svg>