<svg xmlns="http://www.w3.org/2000/svg" viewBox="0 0 1192.55 1192.55"><defs><style>.cls-1{fill:none;stroke:#b3b3b3;stroke-miterlimit:10;}</style></defs><title>Asset 1</title><g id="Layer_2" data-name="Layer 2"><g id="Layer_1-2" data-name="Layer 1"><rect class="cls-1" x="0.5" y="0.5" width="1191.55" height="1191.55"/><line class="cls-1" x1="0.5" y1="1146.22" x2="1192.05" y2="1146.22"/><line class="cls-1" x1="0.5" y1="1100.39" x2="1192.05" y2="1100.39"/><line class="cls-1" x1="0.5" y1="1054.56" x2="1192.05" y2="1054.56"/><line class="cls-1" x1="0.5" y1="1008.73" x2="1192.05" y2="1008.73"/><line class="cls-1" x1="0.5" y1="962.91" x2="1192.05" y2="962.91"/><line class="cls-1" x1="0.5" y1="917.08" x2="1192.05" y2="917.08"/><line class="cls-1" x1="0.5" y1="871.25" x2="1192.05" y2="871.25"/><line class="cls-1" x1="0.5" y1="825.42" x2="1192.05" y2="825.42"/><line class="cls-1" x1="0.5" y1="779.59" x2="1192.05" y2="779.59"/><line class="cls-1" x1="0.5" y1="733.76" x2="1192.05" y2="733.76"/><line class="cls-1" x1="0.5" y1="687.93" x2="1192.05" y2="687.93"/><line class="cls-1" x1="0.5" y1="642.1" x2="1192.05" y2="642.1"/><line class="cls-1" x1="0.5" y1="596.27" x2="1192.05" y2="596.27"/><line class="cls-1" x1="0.5" y1="550.45" x2="1192.05" y2="550.45"/><line class="cls-1" x1="0.5" y1="504.62" x2="1192.05" y2="504.62"/><line class="cls-1" x1="0.5" y1="458.79" x2="1192.05" y2="458.79"/><line class="cls-1" x1="0.5" y1="412.96" x2="1192.05" y2="412.96"/><line class="cls-1" x1="0.5" y1="367.13" x2="1192.05" y2="367.13"/><line class="cls-1" x1="0.5" y1="321.3" x2="1192.05" y2="321.3"/><line class="cls-1" x1="0.5" y1="275.47" x2="1192.05" y2="275.47"/><line class="cls-1" x1="0.5" y1="229.64" x2="1192.05" y2="229.64"/><line class="cls-1" x1="0.5" y1="183.82" x2="1192.05" y2="183.82"/><line class="cls-1" x1="0.5" y1="137.99" x2="1192.05" y2="137.99"/><line class="cls-1" x1="0.5" y1="92.16" x2="1192.05" y2="92.16"/><line class="cls-1" x1="0.5" y1="46.33" x2="1192.05" y2="46.33"/><line class="cls-1" x1="1146.22" y1="0.5" x2="1146.22" y2="1192.05"/><line class="cls-1" x1="1100.39" y1="0.5" x2="1100.39" y2="1192.05"/><line class="cls-1" x1="1054.56" y1="0.5" x2="1054.56" y2="1192.05"/><line class="cls-1" x1="1008.73" y1="0.5" x2="1008.73" y2="1192.05"/><line class="cls-1" x1="962.91" y1="0.5" x2="962.91" y2="1192.05"/><line class="cls-1" x1="917.08" y1="0.5" x2="917.08" y2="1192.05"/><line class="cls-1" x1="871.25" y1="0.5" x2="871.25" y2="1192.05"/><line class="cls-1" x1="825.42" y1="0.5" x2="825.42" y2="1192.05"/><line class="cls-1" x1="779.59" y1="0.5" x2="779.59" y2="1192.05"/><line class="cls-1" x1="733.76" y1="0.5" x2="733.76" y2="1192.05"/><line class="cls-1" x1="687.93" y1="0.5" x2="687.93" y2="1192.05"/><line class="cls-1" x1="642.1" y1="0.5" x2="642.1" y2="1192.05"/><line class="cls-1" x1="596.27" y1="0.5" x2="596.27" y2="1192.05"/><line class="cls-1" x1="550.45" y1="0.5" x2="550.45" y2="1192.05"/><line class="cls-1" x1="504.62" y1="0.5" x2="504.62" y2="1192.05"/><line class="cls-1" x1="458.79" y1="0.5" x2="458.79" y2="1192.05"/><line class="cls-1" x1="412.96" y1="0.5" x2="412.96" y2="1192.05"/><line class="cls-1" x1="367.13" y1="0.5" x2="367.13" y2="1192.05"/><line class="cls-1" x1="321.3" y1="0.5" x2="321.3" y2="1192.05"/><line class="cls-1" x1="275.47" y1="0.5" x2="275.47" y2="1192.05"/><line class="cls-1" x1="229.64" y1="0.5" x2="229.64" y2="1192.05"/><line class="cls-1" x1="183.82" y1="0.5" x2="183.82" y2="1192.05"/><line class="cls-1" x1="137.99" y1="0.5" x2="137.99" y2="1192.05"/><line class="cls-1" x1="92.16" y1="0.5" x2="92.16" y2="1192.05"/><line class="cls-1" x1="46.33" y1="0.5" x2="46.33" y2="1192.05"/></g></g></svg>