<?xml version="1.0" encoding="UTF-8"?>
<svg width="1440px" height="1710px" viewBox="0 0 1440 1710" version="1.1" xmlns="http://www.w3.org/2000/svg" xmlns:xlink="http://www.w3.org/1999/xlink">
    <!-- Generator: Sketch 51.3 (57544) - http://www.bohemiancoding.com/sketch -->
    <title>grid</title>
    <desc>Created with Sketch.</desc>
    <defs></defs>
    <g id="Page-1" stroke="none" stroke-width="1" fill="none" fill-rule="evenodd">
        <g id="Desktop-HD-Copy" stroke="#FFFFFF">
            <g id="grid" transform="translate(-201.000000, -27.000000)">
                <polygon id="Stroke-1" points="0 1737 1737 1737 1737 0 0 0"></polygon>
                <path d="M0,1670 L1737,1670" id="Stroke-3"></path>
                <path d="M0,1603 L1737,1603" id="Stroke-4"></path>
                <path d="M0,1536 L1737,1536" id="Stroke-5"></path>
                <path d="M0,1469 L1737,1469" id="Stroke-6"></path>
                <path d="M0,1403 L1737,1403" id="Stroke-7"></path>
                <path d="M0,1336 L1737,1336" id="Stroke-8"></path>
                <path d="M0,1269 L1737,1269" id="Stroke-9"></path>
                <path d="M0,1202 L1737,1202" id="Stroke-10"></path>
                <path d="M0,1135 L1737,1135" id="Stroke-11"></path>
                <path d="M0,1069 L1737,1069" id="Stroke-12"></path>
                <path d="M0,1002 L1737,1002" id="Stroke-13"></path>
                <path d="M0,935 L1737,935" id="Stroke-14"></path>
                <path d="M0,868 L1737,868" id="Stroke-15"></path>
                <path d="M0,801 L1737,801" id="Stroke-16"></path>
                <path d="M0,735 L1737,735" id="Stroke-17"></path>
                <path d="M0,668 L1737,668" id="Stroke-18"></path>
                <path d="M0,601 L1737,601" id="Stroke-19"></path>
                <path d="M0,534 L1737,534" id="Stroke-20"></path>
                <path d="M0,467 L1737,467" id="Stroke-21"></path>
                <path d="M0,401 L1737,401" id="Stroke-22"></path>
                <path d="M0,334 L1737,334" id="Stroke-23"></path>
                <path d="M0,267 L1737,267" id="Stroke-24"></path>
                <path d="M0,200 L1737,200" id="Stroke-25"></path>
                <path d="M0,133 L1737,133" id="Stroke-26"></path>
                <path d="M0,67 L1737,67" id="Stroke-27"></path>
                <path d="M1603,0 L1603,1737" id="Stroke-29"></path>
                <path d="M1536,0 L1536,1737" id="Stroke-30"></path>
                <path d="M1469,0 L1469,1737" id="Stroke-31"></path>
                <path d="M1403,0 L1403,1737" id="Stroke-32"></path>
                <path d="M1336,0 L1336,1737" id="Stroke-33"></path>
                <path d="M1269,0 L1269,1737" id="Stroke-34"></path>
                <path d="M1202,0 L1202,1737" id="Stroke-35"></path>
                <path d="M1135,0 L1135,1737" id="Stroke-36"></path>
                <path d="M1069,0 L1069,1737" id="Stroke-37"></path>
                <path d="M1002,0 L1002,1737" id="Stroke-38"></path>
                <path d="M935,0 L935,1737" id="Stroke-39"></path>
                <path d="M868,0 L868,1737" id="Stroke-40"></path>
                <path d="M801,0 L801,1737" id="Stroke-41"></path>
                <path d="M735,0 L735,1737" id="Stroke-42"></path>
                <path d="M668,0 L668,1737" id="Stroke-43"></path>
                <path d="M601,0 L601,1737" id="Stroke-44"></path>
                <path d="M534,0 L534,1737" id="Stroke-45"></path>
                <path d="M467,0 L467,1737" id="Stroke-46"></path>
                <path d="M401,0 L401,1737" id="Stroke-47"></path>
                <path d="M334,0 L334,1737" id="Stroke-48"></path>
                <path d="M267,0 L267,1737" id="Stroke-49"></path>
            </g>
        </g>
    </g>
</svg>