<?xml version="1.0" encoding="UTF-8"?>
<svg width="1440px" height="1997px" viewBox="0 0 1440 1997" version="1.1" xmlns="http://www.w3.org/2000/svg" xmlns:xlink="http://www.w3.org/1999/xlink">
    <!-- Generator: Sketch 51.3 (57544) - http://www.bohemiancoding.com/sketch -->
    <title>grid</title>
    <desc>Created with Sketch.</desc>
    <defs></defs>
    <g id="Page-1" stroke="none" stroke-width="1" fill="none" fill-rule="evenodd">
        <g id="Desktop-HD-Copy" stroke="#001CFF">
            <g id="grid" transform="translate(-201.000000, -27.000000)">
                <polygon id="Stroke-1" points="0 2036 2043 2036 2043 0 0 0"></polygon>
                <path d="M0,1957 L2043,1957" id="Stroke-3"></path>
                <path d="M0,1879 L2043,1879" id="Stroke-4"></path>
                <path d="M0,1800 L2043,1800" id="Stroke-5"></path>
                <path d="M0,1722 L2043,1722" id="Stroke-6"></path>
                <path d="M0,1645 L2043,1645" id="Stroke-7"></path>
                <path d="M0,1566 L2043,1566" id="Stroke-8"></path>
                <path d="M0,1487 L2043,1487" id="Stroke-9"></path>
                <path d="M0,1409 L2043,1409" id="Stroke-10"></path>
                <path d="M0,1330 L2043,1330" id="Stroke-11"></path>
                <path d="M0,1253 L2043,1253" id="Stroke-12"></path>
                <path d="M0,1174 L2043,1174" id="Stroke-13"></path>
                <path d="M0,1096 L2043,1096" id="Stroke-14"></path>
                <path d="M0,1017 L2043,1017" id="Stroke-15"></path>
                <path d="M0,939 L2043,939" id="Stroke-16"></path>
                <path d="M0,862 L2043,862" id="Stroke-17"></path>
                <path d="M0,783 L2043,783" id="Stroke-18"></path>
                <path d="M0,704 L2043,704" id="Stroke-19"></path>
                <path d="M0,626 L2043,626" id="Stroke-20"></path>
                <path d="M0,547 L2043,547" id="Stroke-21"></path>
                <path d="M0,470 L2043,470" id="Stroke-22"></path>
                <path d="M0,391 L2043,391" id="Stroke-23"></path>
                <path d="M0,313 L2043,313" id="Stroke-24"></path>
                <path d="M0,234 L2043,234" id="Stroke-25"></path>
                <path d="M0,156 L2043,156" id="Stroke-26"></path>
                <path d="M0,79 L2043,79" id="Stroke-27"></path>
                <path d="M1571,0 L1571,2036" id="Stroke-33"></path>
                <path d="M1493,0 L1493,2036" id="Stroke-34"></path>
                <path d="M1414,0 L1414,2036" id="Stroke-35"></path>
                <path d="M1335,0 L1335,2036" id="Stroke-36"></path>
                <path d="M1257,0 L1257,2036" id="Stroke-37"></path>
                <path d="M1179,0 L1179,2036" id="Stroke-38"></path>
                <path d="M1100,0 L1100,2036" id="Stroke-39"></path>
                <path d="M1021,0 L1021,2036" id="Stroke-40"></path>
                <path d="M942,0 L942,2036" id="Stroke-41"></path>
                <path d="M864,0 L864,2036" id="Stroke-42"></path>
                <path d="M786,0 L786,2036" id="Stroke-43"></path>
                <path d="M707,0 L707,2036" id="Stroke-44"></path>
                <path d="M628,0 L628,2036" id="Stroke-45"></path>
                <path d="M549,0 L549,2036" id="Stroke-46"></path>
                <path d="M472,0 L472,2036" id="Stroke-47"></path>
                <path d="M393,0 L393,2036" id="Stroke-48"></path>
                <path d="M314,0 L314,2036" id="Stroke-49"></path>
                <path d="M235,0 L235,2036" id="Stroke-50"></path>
            </g>
        </g>
    </g>
</svg>